<svg version="1.2" xmlns="http://www.w3.org/2000/svg" viewBox="0 0 220 220" width="220" height="220">
	<title>nomics_logo</title>
	<defs>
	  <linearGradient id="g1" x1="9.7" y1="168.5" x2="9.7" y2="52.5" gradientUnits="userSpaceOnUse">
	    <stop offset="0" stop-color="#E5B25D"/>
	    <stop offset="1" stop-color="#EF5B5B"/>
	  </linearGradient>
	  <linearGradient id="g2" x1="18.6" y1="162.3" x2="18.6" y2="72.8" gradientUnits="userSpaceOnUse">
	    <stop offset="0" stop-color="#EF5B5B"/>
	    <stop offset="1" stop-color="#E5B25D"/>
	  </linearGradient>
	  <linearGradient id="g3" x1="210.3" y1="50.6" x2="210.3" y2="166.5" gradientUnits="userSpaceOnUse">
	    <stop offset="0" stop-color="#001A23"/>
	    <stop offset="1" stop-color="#31493C"/>
	  </linearGradient>
	  <linearGradient id="g4" x1="201.4" y1="56.7" x2="201.4" y2="146.3" gradientUnits="userSpaceOnUse">
	    <stop offset="0" stop-color="#31493C"/>
	    <stop offset="1" stop-color="#001A23"/>
	  </linearGradient>
	</defs>
	<style>
		.s0 { fill: url(#g1) }
		.s1 { fill: url(#g2) }
		.s2 { fill: url(#g3) }
		.s3 { fill: url(#g4) }
	</style>
	<g id="&lt;Group&gt;">
		<path id="&lt;Path&gt;" class="s0" d="m143.3 165.8l-78.9-83.7c-3.5-3.7-9.7-1.3-9.7 3.8v55.2c0 3-1.2 5.9-3.4 8l-26.2 25.3c-5.7 5.4-15 1.4-15-6.4v-88c0-16.9 13.7-30.5 30.5-30.5c8.5 0 16.2 3.5 21.8 9.1l95.2 101.9c6 6 13.9 9 21.8 8.9c8.2 0 15.6-3.2 21-8.4c-14.6 16.2-40.1 22.3-57.1 4.8z" />
		<path id="&lt;Path&gt;" class="s1" d="m29.7 170c-4.6 4.4-10.7 3.6-10.7-5.5q0-9.2 0-84.5c0-16.4 18.3-23.2 31.5-11.2q4.2 3.8 13.9 13.3c-3.5-3.7-9.7-1.3-9.7 3.8v55.2c0 3-1.2 5.9-3.4 8z" />
		<path id="&lt;Path&gt;" class="s2" d="m76.7 53.2l78.9 83.8c3.5 3.7 9.7 1.2 9.6-3.9v-55.2c0-3 1.3-5.9 3.4-7.9l26.3-25.3c5.6-5.4 14.9-1.4 14.9 6.4v87.9c0 16.9-13.6 30.6-30.4 30.6c-8.6 0-16.2-3.5-21.8-9.1l-95.2-101.9c-6.1-6-14-9-21.9-9c-8.1 0-15.5 3.2-21 8.5c14.7-16.3 40.2-22.4 57.2-4.9z" />
		<path id="&lt;Path&gt;" class="s3" d="m190.3 49.1c4.6-4.4 10.6-3.7 10.6 5.5q0 9.2 0 84.4c0 16.5-18.3 23.2-31.4 11.3q-4.2-3.8-13.9-13.3c3.5 3.7 9.7 1.2 9.6-3.9v-55.2c0-3 1.3-5.9 3.4-7.9z" />
	</g>
</svg>
