<svg version="1.2" baseProfile="tiny-ps" xmlns="http://www.w3.org/2000/svg" viewBox="0 0 170 170" width="170" height="170">
	<title>&lt;Group&gt;</title>
	<defs>
		<linearGradient id="grd1" gradientUnits="userSpaceOnUse"  x1="153.2" y1="3.9" x2="186.5" y2="128.4">
			<stop offset=".1" stop-color="#58c9a9"  />
			<stop offset="1" stop-color="#2057ae"  />
		</linearGradient>
		<linearGradient id="grd2" gradientUnits="userSpaceOnUse"  x1="200.1" y1="65.6" x2="145.5" y2="180.7">
			<stop offset=".1" stop-color="#58c9a9"  />
			<stop offset="1" stop-color="#2057ae"  />
		</linearGradient>
		<linearGradient id="grd3" gradientUnits="userSpaceOnUse"  x1="13.8" y1="187" x2="-8" y2="103.6">
			<stop offset="0" stop-color="#ffe197"  />
			<stop offset="1" stop-color="#e9e670"  />
		</linearGradient>
		<linearGradient id="grd4" gradientUnits="userSpaceOnUse"  x1="21.5" y1="57.9" x2="44.2" y2="71.7">
			<stop offset="0" stop-color="#ffe197"  />
			<stop offset="1" stop-color="#e9e670"  />
		</linearGradient>
		<linearGradient id="grd5" gradientUnits="userSpaceOnUse"  x1="136.4" y1="-5.2" x2="162.1" y2="10.4">
			<stop offset="0" stop-color="#ffe197"  />
			<stop offset="1" stop-color="#e9e670"  />
		</linearGradient>
		<linearGradient id="grd6" gradientUnits="userSpaceOnUse"  x1="145.7" y1="58.5" x2="167.9" y2="72">
			<stop offset="0" stop-color="#ffe197"  />
			<stop offset="1" stop-color="#e9e670"  />
		</linearGradient>
		<linearGradient id="grd7" gradientUnits="userSpaceOnUse"  x1="67.4" y1="126.3" x2="69.9" y2="145.2">
			<stop offset=".1" stop-color="#58c9a9"  />
			<stop offset="1" stop-color="#2057ae"  />
		</linearGradient>
		<linearGradient id="grd8" gradientUnits="userSpaceOnUse"  x1="66.1" y1="126.1" x2="68.3" y2="142.4">
			<stop offset="0" stop-color="#ffe197"  />
			<stop offset="1" stop-color="#e9e670"  />
		</linearGradient>
		<linearGradient id="grd9" gradientUnits="userSpaceOnUse"  x1="136.1" y1="29.2" x2="138.7" y2="48.1">
			<stop offset=".1" stop-color="#58c9a9"  />
			<stop offset="1" stop-color="#2057ae"  />
		</linearGradient>
		<linearGradient id="grd10" gradientUnits="userSpaceOnUse"  x1="134.8" y1="29" x2="137" y2="45.3">
			<stop offset="0" stop-color="#ffe197"  />
			<stop offset="1" stop-color="#e9e670"  />
		</linearGradient>
	</defs>
	<style>
		tspan { white-space:pre }
		.s0 { fill: url(#grd1) } 
		.s1 { fill: url(#grd2) } 
		.s2 { fill: #3f244c } 
		.s3 { mix-blend-mode: soft-light;fill: url(#grd3) } 
		.s4 { mix-blend-mode: soft-light;fill: url(#grd4) } 
		.s5 { mix-blend-mode: soft-light;fill: url(#grd5) } 
		.s6 { mix-blend-mode: soft-light;fill: url(#grd6) } 
		.s7 { fill: url(#grd7) } 
		.s8 { mix-blend-mode: soft-light;fill: url(#grd8) } 
		.s9 { fill: url(#grd9) } 
		.s10 { mix-blend-mode: soft-light;fill: url(#grd10) } 
	</style>
	<g id="&lt;Group&gt;">
		<g id="&lt;Group&gt;">
			<path id="&lt;Compound Path&gt;" class="s0" d="m76.22 13.36c1.64 0.68 3.22 1.46 4.72 2.4c3.68 2.2 7 5.12 9.9 8.74c0.52 0.66 1.04 1.34 1.56 2.06c3.38 4.78 6.22 10.7 8.52 17.76c0.78 2.42 1.5 4.98 2.18 7.7c0 0 0 0.01 0 0.02c1.14 4.64 2.12 9.72 2.96 15.24c0.32 2.14 0.6 4.34 0.88 6.6c0.62 5.26 1.28 9.54 1.98 12.88c0.7 3.32 1.46 5.94 2.32 7.88c0.84 1.92 1.74 3.24 2.66 3.94c0.92 0.7 1.94 1.04 3.02 1.04c2 0 3.58-0.84 4.74-2.56c1.16-1.7 1.74-4.54 1.74-8.56c0-3.26-0.5-5.92-1.5-8c-1-2.1-1.9-3.52-2.66-4.3c-1.24-1.38-2.18-2.74-2.78-4.06c-0.36-0.76-0.62-1.68-0.76-2.74c0.42 0.04 0.84 0.04 1.26 0.04c15.74 0 28.5-12.76 28.5-28.48c0-6.06-1.9-11.7-5.14-16.3c0-0.04-0.04-0.06-0.06-0.1c-0.7-0.98-1.44-1.9-2.24-2.76c-0.12-0.13-0.21-0.23-0.26-0.3c5.14 3.2 9.94 7.68 14.4 13.44c4.78 6.18 8.72 13.76 11.82 22.72c3.1 8.96 4.64 19.24 4.64 30.84c0 10.5-1.32 20.12-3.94 28.86c-2.64 8.74-6.26 16.2-10.9 22.38c-1.02 1.34-2.08 2.62-3.18 3.84c-3.94 4.36-8.5 7.86-13.62 10.52c-5.22 2.7-10.84 4.32-16.86 4.86c-1.58 0.16-3.18 0.24-4.82 0.24c-7.74 0-14.5-1.38-20.3-4.16c-4.64-2.24-8.76-5.22-12.34-8.98c-0.52-0.54-1.04-1.12-1.54-1.7c-0.38-0.42-0.74-0.84-1.08-1.26c-4.16-5.18-7.52-11.48-10.08-18.9c-1.22-3.56-2.28-7.3-3.18-11.24c-1.02-4.3-1.86-8.82-2.5-13.58c-1.54-11.42-3.06-19.28-4.52-23.52c-1.46-4.26-3.6-6.38-6.38-6.38c-2.16 0-3.78 1.58-4.86 4.76c-1.08 3.16-1.62 7.38-1.62 12.62c0 3.88 0.46 7.16 1.38 9.86c0.94 2.7 2.24 5.14 3.94 7.3c1.24 1.7 2.2 3.18 2.9 4.4c0.2 0.36 0.38 0.8 0.52 1.28c-0.14-0.02-0.3-0.02-0.44-0.04c-0.62-0.04-1.24-0.06-1.86-0.06c-15.74 0-28.5 12.76-28.5 28.48c0 2.72 0.38 5.38 1.1 7.86c1.44 5.04 4.24 9.5 7.96 12.96c-0.5-0.22-1-0.48-1.5-0.74c-5.94-3.16-11.2-7.88-15.76-14.14c-4.56-6.26-8.2-14.14-10.9-23.64c-2.7-9.52-4.06-20.68-4.06-33.52c0-10.96 1.28-21.12 3.82-30.48c1-3.66 2.16-7.12 3.48-10.38c2.08-5.12 4.54-9.76 7.42-13.96c4.72-6.88 10.44-12.3 17.16-16.24c6.72-3.94 14.34-5.9 22.84-5.9c7.58 0 14.18 1.14 19.82 3.46z" />
		</g>
		<path id="&lt;Path&gt;" class="s1" d="m90.84 24.5c0.52 0.66 1.04 1.34 1.56 2.06c3.38 4.78 6.22 10.7 8.52 17.76c0.78 2.42 1.5 4.98 2.18 7.7c0 0 0 0.01 0 0.02c1.14 4.64 2.12 9.72 2.96 15.24c0.32 2.14 0.6 4.34 0.88 6.6c0.62 5.26 1.28 9.54 1.98 12.88c0.7 3.32 1.46 5.94 2.32 7.88c0.84 1.92 1.74 3.24 2.66 3.94c0.92 0.7 1.94 1.04 3.02 1.04c2 0 3.58-0.84 4.74-2.56c1.16-1.7 1.74-4.54 1.74-8.56c0-3.26-0.5-5.92-1.5-8c-1-2.1-1.9-3.52-2.66-4.3c-1.24-1.38-2.18-2.74-2.78-4.06c-0.36-0.76-0.62-1.68-0.76-2.74c0.42 0.04 0.84 0.04 1.26 0.04c15.74 0 28.5-12.76 28.5-28.48c0-6.06-1.9-11.7-5.14-16.3c0-0.04-0.04-0.06-0.06-0.1c-0.7-0.98-1.44-1.9-2.24-2.76c-0.12-0.13-0.21-0.23-0.26-0.3c5.14 3.2 9.94 7.68 14.4 13.44c4.78 6.18 8.72 13.76 11.82 22.72c3.1 8.96 4.64 19.24 4.64 30.84c0 10.5-1.32 20.12-3.94 28.86c-2.64 8.74-6.26 16.2-10.9 22.38c-1.02 1.34-2.08 2.62-3.18 3.84c-3.94 4.36-8.5 7.86-13.62 10.52c-5.22 2.7-10.84 4.32-16.86 4.86c-26.24-18.58-63.26-60.78-39.18-143.2c3.68 2.2 7 5.12 9.9 8.74z" />
		<g id="&lt;Group&gt;" style="opacity: .2;mix-blend-mode: multiply">
			<path id="&lt;Path&gt;" class="s2" d="m76.22 13.36c5.64 2.32 10.52 6.04 14.62 11.14c0.52 0.66 1.04 1.34 1.56 2.06c3.38 4.78 6.22 10.7 8.52 17.76c0.78 2.42 1.5 4.98 2.18 7.7c-13.58-16.72-39.54-38.06-71.32-12.34c-39.46 31.92-18.84 82.58-5.84 106.26c4.24 7.72 7.68 12.56 7.96 12.96c-0.5-0.22-1-0.48-1.5-0.74c-5.94-3.16-11.2-7.88-15.76-14.14c-4.56-6.26-8.2-14.14-10.9-23.64c-2.7-9.52-4.06-20.68-4.06-33.52c0-10.96 1.28-21.12 3.82-30.48c1-3.66 2.16-7.12 3.48-10.38c2.08-5.12 4.54-9.76 7.42-13.96c4.72-6.88 10.44-12.3 17.16-16.24c6.72-3.94 14.34-5.9 22.84-5.9c7.58 0 14.18 1.14 19.82 3.46z" />
		</g>
		<g id="&lt;Group&gt;" style="opacity: .2;mix-blend-mode: multiply">
			<path id="&lt;Path&gt;" class="s2" d="m152.16 34.94c4.78 6.18 8.72 13.76 11.82 22.72c3.1 8.96 4.64 19.24 4.64 30.84c0 10.5-1.32 20.12-3.94 28.86c-2.64 8.74-6.26 16.2-10.9 22.38c-1.02 1.34-2.08 2.62-3.18 3.84c-3.94 4.36-8.5 7.86-13.62 10.52c-6.58 3.4-13.8 5.1-21.68 5.1c-7.74 0-14.5-1.38-20.3-4.16c-4.64-2.24-8.76-5.22-12.34-8.98c18.5 7.24 52.63-2.3 67.24-26.6c21.22-35.29-0.9-83.52-9.58-94.8c0-0.04-0.04-0.06-0.06-0.1c-0.7-0.98-1.44-1.9-2.24-2.76c-0.12-0.13-0.21-0.23-0.26-0.3c5.14 3.2 9.94 7.68 14.4 13.44z" />
		</g>
		<path id="&lt;Path&gt;" class="s3" d="m55.12 108.42c0.04 0.4 0.08 0.82 0.08 1.24c-0.62-0.04-1.24-0.06-1.86-0.06c-15.74 0-28.5 12.76-28.5 28.48c0 8.24 3.5 15.66 9.08 20.84c-0.5-0.24-1.02-0.5-1.52-0.76c-5.94-3.16-11.2-7.88-15.76-14.14c-4.56-6.26-8.2-14.14-10.9-23.64c-1.92-6.8-3.18-14.44-3.7-22.94c-0.24-3.4-0.36-6.92-0.36-10.58c0-10.96 1.28-21.12 3.82-30.48c1-3.66 2.16-7.12 3.48-10.38c-1.13 40.57 14.25 61.38 46.14 62.42z" />
		<path id="&lt;Path&gt;" class="s4" d="m55.12 108.42c-18.81 4.85-36.51 1.19-53.08-10.98c-0.24-3.4-0.36-6.92-0.36-10.58c0-10.96 1.28-21.12 3.82-30.48c1-3.66 2.16-7.12 3.48-10.38c-1.13 40.57 14.25 61.38 46.14 62.42z" />
		<path id="&lt;Path&gt;" class="s5" d="m152.16 34.94c4.78 6.18 8.72 13.76 11.82 22.72c3.1 8.96 4.64 19.24 4.64 30.84c0 2.66-0.08 5.26-0.24 7.8c-0.52 7.5-1.74 14.52-3.7 21.06c-2.64 8.74-6.26 16.2-10.9 22.38c-1.02 1.34-2.08 2.62-3.18 3.84c12.01-36.72 0.38-61.45-34.9-74.18c0.15 0 0.35 0.01 0.62 0.02c0.22 0.02 0.44 0.02 0.64 0.02h0.18c15.66-0.1 28.32-12.82 28.32-28.48c0-7.52-2.92-14.36-7.7-19.46c5.14 3.2 9.94 7.68 14.4 13.44z" />
		<path id="&lt;Path&gt;" class="s6" d="m116.32 69.42c0.18 0 0.4 0 0.64 0.02h0.18c6.64 0.32 34.76 3.06 51.24 26.86c-0.52 7.5-1.74 14.52-3.7 21.06c-2.64 8.74-6.26 16.2-10.9 22.38c-1.02 1.34-2.08 2.62-3.18 3.84c12.01-36.72 0.38-61.45-34.9-74.18c0.15 0 0.35 0.01 0.62 0.02z" />
		<path id="&lt;Path&gt;" class="s7" d="m58.22 128.2c3.8 1.6 6.5 5.36 6.5 9.74c0 5.82-4.74 10.54-10.56 10.54c-0.98 0-1.92-0.14-2.82-0.4c-4.46-1.22-7.72-5.3-7.72-10.14c0-5.82 4.72-10.54 10.54-10.54c1.44 0 2.8 0.28 4.06 0.8z" />
		<path id="&lt;Path&gt;" class="s8" d="m64.72 137.94c0 5.82-4.74 10.54-10.56 10.54c-0.98 0-1.92-0.14-2.82-0.4c7.92-3.16 10.58-12.06 6.88-19.88c3.8 1.6 6.5 5.36 6.5 9.74z" />
		<path id="&lt;Path&gt;" class="s9" d="m126.95 31.1c3.8 1.6 6.5 5.36 6.5 9.74c0 5.82-4.74 10.54-10.56 10.54c-0.98 0-1.92-0.14-2.82-0.4c-4.46-1.22-7.72-5.3-7.72-10.14c0-5.82 4.72-10.54 10.54-10.54c1.44 0 2.8 0.28 4.06 0.8z" />
		<path id="&lt;Path&gt;" class="s10" d="m133.45 40.84c0 5.82-4.74 10.54-10.56 10.54c-0.98 0-1.92-0.14-2.82-0.4c7.92-3.16 10.58-12.06 6.88-19.88c3.8 1.6 6.5 5.36 6.5 9.74z" />
	</g>
</svg>